arm26_states
nRows=18
nColumns=17

# SIMM Motion File Header:
name arm26_states
datacolumns 17
datarows 18
otherdata 1
range 0.38141950999999863000 0.42205182999999835000
endheader
time	r_shoulder_elev	r_elbow_flex	r_shoulder_elev_u	r_elbow_flex_u	TRIlong.activation	TRIlong.fiber_length	TRIlat.activation	TRIlat.fiber_length	TRImed.activation	TRImed.fiber_length	BIClong.activation	BIClong.fiber_length	BICshort.activation	BICshort.fiber_length	BRA.activation	BRA.fiber_length
      0.38141950999999863000	    -10.80714064252713100000	     64.78612270319408100000	      0.93841550743320534000	    104.53266414584266000000	      0.01001009639770298500	      0.15461137312414930000	      0.03132816308938708700	      0.09536267270707109200	      0.02960982144847318000	      0.09039529610004562500	      0.15430637417345056000	      0.12191534753634839000	      0.02531138620003918100	      0.12006684797661876000	      0.01012576497204967900	      0.07771211732020691400
      0.38404094999999860000	    -10.80444433811819800000	     65.05813903361581700000	      1.11743488223484810000	    103.02750057696912000000	      0.01001004479256149000	      0.15474896843227340000	      0.03158235227096725000	      0.09545576419907483800	      0.02985313268677923900	      0.09048838651971999300	      0.15466332393627727000	      0.12170736500358513000	      0.02522130720970009900	      0.11986670627755734000	      0.01012526392465408500	      0.07762712042351294100
      0.38666238999999858000	    -10.80130488374503500000	     65.32628006737260800000	      1.27611354436181460000	    101.56978942842284000000	      0.01000999328231374000	      0.15477409580485488000	      0.03183943582674896000	      0.09554730949531245500	      0.03009942539308177500	      0.09057993702015018600	      0.15502603959034314000	      0.12150155859538365000	      0.02512984433173614400	      0.11966886972668016000	      0.01012477505712107300	      0.07754299961952747200
      0.38797310999999857000	    -10.79958805756731800000	     65.45891564463579500000	      1.34415261818130220000	    100.82985652748097000000	      0.01000996756277934700	      0.15489099054701463000	      0.03196899162952134700	      0.09559249742811167000	      0.03022362260146086200	      0.09062512702279107400	      0.15520941448468634000	      0.12139946679280839000	      0.02508359914452658000	      0.11957081482039843000	      0.01012453498272449000	      0.07750128244703308200
      0.38928382999999855000	    -10.79778213037071300000	     65.59061525493577000000	      1.41029834897438610000	    100.12709714819152000000	      0.01000994186595435800	      0.15492296065340599000	      0.03209911391959965900	      0.09563730985773598300	      0.03034840687269776300	      0.09066994238965837800	      0.15539391621971066000	      0.12129790982910028000	      0.02503702613994456700	      0.11947332597687317000	      0.01012429768999904700	      0.07745978616725682200
      0.39190526999999853000	    -10.79393128912656700000	     65.85125345491830700000	      1.52492187067966740000	     98.73650924049799500000	      0.01000989053746163600	      0.15498839009423340000	      0.03236075375915566800	      0.09572582992354652900	      0.03059942270888669000	      0.09075847032793064900	      0.15576572515927828000	      0.12109638724738329000	      0.02494294399454609700	      0.11928002822594425000	      0.01012383110635224600	      0.07737745259205079700
      0.39452670999999850000	    -10.78980689757081500000	     66.10830200150719800000	      1.61844079646002290000	     97.38482524467342200000	      0.01000983929498716300	      0.15515743789051936000	      0.03262568430583089000	      0.09581289408096611800	      0.03085377944691156100	      0.09084554302441560900	      0.15614254345576808000	      0.12089697083836423000	      0.02484737653212814800	      0.11908895303631277000	      0.01012337391697509100	      0.07729598829583868300
      0.39714814999999848000	    -10.78544990068060700000	     66.36196284659573100000	      1.70185876103678440000	     96.14494590578527800000	      0.01000978813543814900	      0.15514444974859329000	      0.03289419443506438200	      0.09589858098814636700	      0.03111175105012265600	      0.09093124381236283900	      0.15652438272641309000	      0.12069960160609973000	      0.02475022666080043900	      0.11890001643502819000	      0.01012292507855637800	      0.07721531799074032900
      0.39976958999999845000	    -10.78090890853619800000	     66.61235811494381700000	      1.79112056878195180000	     95.12135830647112300000	      0.01000973705355424600	      0.15493661112372079000	      0.03316545868872554400	      0.09598289525362836700	      0.03137250392415236200	      0.09101557103332574800	      0.15691008512560622000	      0.12050425005142995000	      0.02465159476015152700	      0.11871319658853718000	      0.01012248406135580200	      0.07713548384778953800
      0.40042494999999845000	    -10.77973807552710600000	     66.67454873641573000000	      1.78836820811135010000	     94.71564584339509500000	      0.01000972429528625100	      0.15521116406901489000	      0.03323365295390699100	      0.09600379001187851800	      0.03143807412268362400	      0.09103647155180687200	      0.15700700861476707000	      0.12045571052479599000	      0.02462670833218216800	      0.11866679298795293000	      0.01012237491376406100	      0.07711561783377522700
      0.40108030999999844000	    -10.77856452214777100000	     66.73650852873508700000	      1.79365009111149810000	     94.37671491441065500000	      0.01000971154476963300	      0.15528972763725096000	      0.03330209708803789900	      0.09602460858696755500	      0.03150389690130479100	      0.09105729590064051700	      0.15710412263343604000	      0.12040728805051740000	      0.02460169617373751000	      0.11862050846923639000	      0.01012226593220048500	      0.07709579732531125800
      0.40239102999999843000	    -10.77620440322187400000	     66.85979742829613300000	      1.80721781635661970000	     93.75169855207001000000	      0.01000968606690173300	      0.15536549690435239000	      0.03343968798196387400	      0.09606600730082229300	      0.03163625272290396900	      0.09109870564968029800	      0.15729887680732441000	      0.12031079917459694000	      0.02455129771767884300	      0.11852830802497971000	      0.01012204842063758500	      0.07705630282762783400
      0.40370174999999842000	    -10.77382765361430600000	     66.98228684718779400000	      1.81860273094320180000	     93.15375978620403400000	      0.01000966061908994400	      0.15540667716983805000	      0.03357811928382845700	      0.09610708785884537800	      0.03176945808893791300	      0.09113979691602079600	      0.15749426029275684000	      0.12021478573379286000	      0.02450041382872033100	      0.11843660266110159000	      0.01012183149496282900	      0.07701700239895317700
      0.40632318999999839000	    -10.76904506352231300000	     67.22494408699319000000	      1.82722414950301280000	     91.98618934188726800000	      0.01000960980979055800	      0.15549067980368839000	      0.03385710274308902100	      0.09618831036059656600	      0.03203801273378082500	      0.09122104140451430000	      0.15788661539087542000	      0.12002418017200220000	      0.02439725184445636800	      0.11825467603447205000	      0.01012139932633960600	      0.07693897479411673800
      0.41156606999999840000	    -10.75952932685279800000	     67.70134801054273100000	      1.78848121640573980000	     89.76135597829723200000	      0.01000950855332935100	      0.15565643235541038000	      0.03442212088433876200	      0.09634717170077007600	      0.03258232268164687500	      0.09137995898977853400	      0.15867608410359893000	      0.11964858506082190000	      0.02418551444955983200	      0.11789667477244244000	      0.01012054256987870800	      0.07678525528564163200
      0.41680894999999840000	    -10.75039847786164800000	     68.16651521408012100000	      1.67944898595650830000	     87.68850531019704400000	      0.01000940790381529300	      0.15584035535381918000	      0.03499590689144861000	      0.09650147209882316300	      0.03313581784053567400	      0.09153431031876264900	      0.15946986846941799000	      0.11928029749386812000	      0.02396628841529252500	      0.11754621829653560000	      0.01011970050783609300	      0.07663394741932316700
      0.41943038999999838000	    -10.74609031477814200000	     68.39513308645153700000	      1.60561034623676770000	     86.74426336393249000000	      0.01000935783615601600	      0.15585781563199644000	      0.03528583774558488600	      0.09657702720106554900	      0.03341577386324443000	      0.09160989389620523300	      0.15986665737626912000	      0.11909880669235332000	      0.02385400120647773000	      0.11737369438148537000	      0.01011928394215477900	      0.07655940327955002000
      0.42205182999999835000	    -10.74199853794833700000	     68.62131267260581100000	      1.53653798623601620000	     85.95510263116462100000	      0.01000930797731642400	      0.15577506206998404000	      0.03557804245864296100	      0.09665155292907963400	      0.03369814611764165900	      0.09168444871093951700	      0.16026227683954980000	      0.11891905513606336000	      0.02373993991307556500	      0.11720294608875219000	      0.01011886945796615500	      0.07648547475070537100
